<svg width="113" height="94" viewBox="0 0 113 94" fill="none" xmlns="http://www.w3.org/2000/svg">
<g filter="url(#filter0_d_106_1634)">
<path d="M91.5403 81.64C82.1605 80.5631 77.8966 90.7484 69.1772 90.7484C60.3063 90.7484 56.0871 80.673 46.5165 81.3443C43.3062 81.5694 41.3567 83.145 38.4784 83.145C28.1847 83.145 19.8398 74.8777 19.8398 64.6795C19.8398 54.4812 28.1847 46.2139 38.4784 46.2139C48.7721 46.2139 39.5199 46.2789 40.1882 46.2906C53.6614 46.5252 56.2794 27.7484 69.1772 27.7484C86.1361 27.7484 89.9064 44.5706 100.923 57.4741C104.997 62.2468 110.84 64.0193 110.84 70.1105C110.84 77.3093 104.949 83.145 97.6832 83.145C95.4645 83.145 93.9951 81.9218 91.5403 81.64Z" fill="url(#paint0_linear_106_1634)" shape-rendering="crispEdges"/>
</g>
<circle cx="39.9462" cy="39.9692" r="22.6967" fill="url(#paint1_linear_106_1634)"/>
<ellipse cx="7.26294" cy="39.9691" rx="2.7236" ry="7.26294" transform="rotate(-90 7.26294 39.9691)" fill="url(#paint2_linear_106_1634)"/>
<ellipse cx="72.6294" cy="39.9691" rx="2.7236" ry="7.26294" transform="rotate(-90 72.6294 39.9691)" fill="url(#paint3_linear_106_1634)"/>
<ellipse rx="2.7236" ry="7.26294" transform="matrix(-0.716923 0.697152 0.697152 0.716923 17.1611 16.5377)" fill="url(#paint4_linear_106_1634)"/>
<ellipse rx="2.7236" ry="7.26294" transform="matrix(-0.716923 0.697152 0.697152 0.716923 62.7311 63.4006)" fill="url(#paint5_linear_106_1634)"/>
<ellipse rx="2.7236" ry="7.26294" transform="matrix(-0.718812 -0.695204 -0.695204 0.718812 62.6676 16.476)" fill="url(#paint6_linear_106_1634)"/>
<ellipse rx="2.7236" ry="7.26294" transform="matrix(-0.718812 -0.695204 -0.695204 0.718812 17.2245 63.4622)" fill="url(#paint7_linear_106_1634)"/>
<ellipse rx="2.7236" ry="7.26294" transform="matrix(-0.999959 0.00902553 0.00902553 0.999959 39.6511 7.28723)" fill="url(#paint8_linear_106_1634)"/>
<ellipse rx="2.7236" ry="7.26294" transform="matrix(-0.999959 0.00902553 0.00902553 0.999959 40.241 72.6511)" fill="url(#paint9_linear_106_1634)"/>
<defs>
<filter id="filter0_d_106_1634" x="13.8398" y="22.7484" width="99" height="71" filterUnits="userSpaceOnUse" color-interpolation-filters="sRGB">
<feFlood flood-opacity="0" result="BackgroundImageFix"/>
<feColorMatrix in="SourceAlpha" type="matrix" values="0 0 0 0 0 0 0 0 0 0 0 0 0 0 0 0 0 0 127 0" result="hardAlpha"/>
<feOffset dx="-2" dy="-1"/>
<feGaussianBlur stdDeviation="2"/>
<feComposite in2="hardAlpha" operator="out"/>
<feColorMatrix type="matrix" values="0 0 0 0 0 0 0 0 0 0 0 0 0 0 0 0 0 0 0.25 0"/>
<feBlend mode="normal" in2="BackgroundImageFix" result="effect1_dropShadow_106_1634"/>
<feBlend mode="normal" in="SourceGraphic" in2="effect1_dropShadow_106_1634" result="shape"/>
</filter>
<linearGradient id="paint0_linear_106_1634" x1="65.3398" y1="27.7484" x2="65.3398" y2="90.7484" gradientUnits="userSpaceOnUse">
<stop stop-color="#D9D9D9"/>
<stop offset="1" stop-color="#D9D9D9" stop-opacity="0"/>
</linearGradient>
<linearGradient id="paint1_linear_106_1634" x1="39.9462" y1="17.2725" x2="39.9462" y2="62.6658" gradientUnits="userSpaceOnUse">
<stop stop-color="#FFF388"/>
<stop offset="1" stop-color="#FFC700" stop-opacity="0.53"/>
</linearGradient>
<linearGradient id="paint2_linear_106_1634" x1="7.26294" y1="32.7062" x2="7.26294" y2="47.2321" gradientUnits="userSpaceOnUse">
<stop stop-color="#FFF388"/>
<stop offset="1" stop-color="#FFC700" stop-opacity="0.53"/>
</linearGradient>
<linearGradient id="paint3_linear_106_1634" x1="72.6294" y1="32.7062" x2="72.6294" y2="47.2321" gradientUnits="userSpaceOnUse">
<stop stop-color="#FFF388"/>
<stop offset="1" stop-color="#FFC700" stop-opacity="0.53"/>
</linearGradient>
<linearGradient id="paint4_linear_106_1634" x1="2.7236" y1="0" x2="2.7236" y2="14.5259" gradientUnits="userSpaceOnUse">
<stop stop-color="#FFF388"/>
<stop offset="1" stop-color="#FFC700" stop-opacity="0.53"/>
</linearGradient>
<linearGradient id="paint5_linear_106_1634" x1="2.7236" y1="0" x2="2.7236" y2="14.5259" gradientUnits="userSpaceOnUse">
<stop stop-color="#FFF388"/>
<stop offset="1" stop-color="#FFC700" stop-opacity="0.53"/>
</linearGradient>
<linearGradient id="paint6_linear_106_1634" x1="2.7236" y1="0" x2="2.7236" y2="14.5259" gradientUnits="userSpaceOnUse">
<stop stop-color="#FFF388"/>
<stop offset="1" stop-color="#FFC700" stop-opacity="0.53"/>
</linearGradient>
<linearGradient id="paint7_linear_106_1634" x1="2.7236" y1="0" x2="2.7236" y2="14.5259" gradientUnits="userSpaceOnUse">
<stop stop-color="#FFF388"/>
<stop offset="1" stop-color="#FFC700" stop-opacity="0.53"/>
</linearGradient>
<linearGradient id="paint8_linear_106_1634" x1="2.7236" y1="0" x2="2.7236" y2="14.5259" gradientUnits="userSpaceOnUse">
<stop stop-color="#FFF388"/>
<stop offset="1" stop-color="#FFC700" stop-opacity="0.53"/>
</linearGradient>
<linearGradient id="paint9_linear_106_1634" x1="2.7236" y1="0" x2="2.7236" y2="14.5259" gradientUnits="userSpaceOnUse">
<stop stop-color="#FFF388"/>
<stop offset="1" stop-color="#FFC700" stop-opacity="0.53"/>
</linearGradient>
</defs>
</svg>
