<svg width="113" height="95" viewBox="0 0 113 95" fill="none" xmlns="http://www.w3.org/2000/svg">
<circle cx="39.946" cy="40.7175" r="22.6967" fill="url(#paint0_linear_106_1649)"/>
<ellipse cx="7.26319" cy="40.7176" rx="2.7236" ry="7.26294" transform="rotate(-90 7.26319 40.7176)" fill="url(#paint1_linear_106_1649)"/>
<ellipse cx="72.6296" cy="40.7176" rx="2.7236" ry="7.26294" transform="rotate(-90 72.6296 40.7176)" fill="url(#paint2_linear_106_1649)"/>
<ellipse rx="2.7236" ry="7.26294" transform="matrix(-0.716923 0.697152 0.697152 0.716923 17.1613 17.2862)" fill="url(#paint3_linear_106_1649)"/>
<ellipse rx="2.7236" ry="7.26294" transform="matrix(-0.716923 0.697152 0.697152 0.716923 62.7314 64.149)" fill="url(#paint4_linear_106_1649)"/>
<ellipse rx="2.7236" ry="7.26294" transform="matrix(-0.718812 -0.695204 -0.695204 0.718812 62.6678 17.2244)" fill="url(#paint5_linear_106_1649)"/>
<ellipse rx="2.7236" ry="7.26294" transform="matrix(-0.718812 -0.695204 -0.695204 0.718812 17.2247 64.2107)" fill="url(#paint6_linear_106_1649)"/>
<ellipse rx="2.7236" ry="7.26294" transform="matrix(-0.999959 0.00902553 0.00902553 0.999959 39.6516 8.03564)" fill="url(#paint7_linear_106_1649)"/>
<ellipse rx="2.7236" ry="7.26294" transform="matrix(-0.999959 0.00902553 0.00902553 0.999959 40.2415 73.3994)" fill="url(#paint8_linear_106_1649)"/>
<g filter="url(#filter0_d_106_1649)">
<path d="M91.3911 82.5838C82.0113 81.4898 77.7474 91.8367 69.028 91.8367C60.1571 91.8367 55.9379 81.6015 46.3673 82.2834C43.157 82.5121 41.2075 84.1127 38.3292 84.1127C28.0355 84.1127 19.6907 75.7142 19.6907 65.354C19.6907 54.9939 28.0355 46.5954 38.3292 46.5954C48.623 46.5954 39.3707 46.6614 40.039 46.6733C53.5123 46.9117 56.1302 27.8367 69.028 27.8367C85.9869 27.8367 89.7573 44.926 100.774 58.0343C104.848 62.8828 110.691 64.6834 110.691 70.8713C110.691 78.1843 104.8 84.1127 97.534 84.1127C95.3153 84.1127 93.8459 82.8701 91.3911 82.5838Z" fill="url(#paint9_linear_106_1649)" shape-rendering="crispEdges"/>
</g>
<defs>
<filter id="filter0_d_106_1649" x="13.6907" y="22.8367" width="99.0002" height="72" filterUnits="userSpaceOnUse" color-interpolation-filters="sRGB">
<feFlood flood-opacity="0" result="BackgroundImageFix"/>
<feColorMatrix in="SourceAlpha" type="matrix" values="0 0 0 0 0 0 0 0 0 0 0 0 0 0 0 0 0 0 127 0" result="hardAlpha"/>
<feOffset dx="-2" dy="-1"/>
<feGaussianBlur stdDeviation="2"/>
<feComposite in2="hardAlpha" operator="out"/>
<feColorMatrix type="matrix" values="0 0 0 0 0 0 0 0 0 0 0 0 0 0 0 0 0 0 0.25 0"/>
<feBlend mode="normal" in2="BackgroundImageFix" result="effect1_dropShadow_106_1649"/>
<feBlend mode="normal" in="SourceGraphic" in2="effect1_dropShadow_106_1649" result="shape"/>
</filter>
<linearGradient id="paint0_linear_106_1649" x1="39.946" y1="18.0208" x2="39.946" y2="63.4142" gradientUnits="userSpaceOnUse">
<stop stop-color="#FFF388"/>
<stop offset="1" stop-color="#FFC700" stop-opacity="0.53"/>
</linearGradient>
<linearGradient id="paint1_linear_106_1649" x1="7.26319" y1="33.4546" x2="7.26319" y2="47.9805" gradientUnits="userSpaceOnUse">
<stop stop-color="#FFF388"/>
<stop offset="1" stop-color="#FFC700" stop-opacity="0.53"/>
</linearGradient>
<linearGradient id="paint2_linear_106_1649" x1="72.6296" y1="33.4546" x2="72.6296" y2="47.9805" gradientUnits="userSpaceOnUse">
<stop stop-color="#FFF388"/>
<stop offset="1" stop-color="#FFC700" stop-opacity="0.53"/>
</linearGradient>
<linearGradient id="paint3_linear_106_1649" x1="2.7236" y1="0" x2="2.7236" y2="14.5259" gradientUnits="userSpaceOnUse">
<stop stop-color="#FFF388"/>
<stop offset="1" stop-color="#FFC700" stop-opacity="0.53"/>
</linearGradient>
<linearGradient id="paint4_linear_106_1649" x1="2.7236" y1="0" x2="2.7236" y2="14.5259" gradientUnits="userSpaceOnUse">
<stop stop-color="#FFF388"/>
<stop offset="1" stop-color="#FFC700" stop-opacity="0.53"/>
</linearGradient>
<linearGradient id="paint5_linear_106_1649" x1="2.7236" y1="0" x2="2.7236" y2="14.5259" gradientUnits="userSpaceOnUse">
<stop stop-color="#FFF388"/>
<stop offset="1" stop-color="#FFC700" stop-opacity="0.53"/>
</linearGradient>
<linearGradient id="paint6_linear_106_1649" x1="2.7236" y1="0" x2="2.7236" y2="14.5259" gradientUnits="userSpaceOnUse">
<stop stop-color="#FFF388"/>
<stop offset="1" stop-color="#FFC700" stop-opacity="0.53"/>
</linearGradient>
<linearGradient id="paint7_linear_106_1649" x1="2.7236" y1="0" x2="2.7236" y2="14.5259" gradientUnits="userSpaceOnUse">
<stop stop-color="#FFF388"/>
<stop offset="1" stop-color="#FFC700" stop-opacity="0.53"/>
</linearGradient>
<linearGradient id="paint8_linear_106_1649" x1="2.7236" y1="0" x2="2.7236" y2="14.5259" gradientUnits="userSpaceOnUse">
<stop stop-color="#FFF388"/>
<stop offset="1" stop-color="#FFC700" stop-opacity="0.53"/>
</linearGradient>
<linearGradient id="paint9_linear_106_1649" x1="65.1907" y1="27.8367" x2="65.1907" y2="91.8367" gradientUnits="userSpaceOnUse">
<stop stop-color="#D9D9D9"/>
<stop offset="1" stop-color="#D9D9D9" stop-opacity="0"/>
</linearGradient>
</defs>
</svg>
