<svg width="90" height="90" viewBox="0 0 90 90" fill="none" xmlns="http://www.w3.org/2000/svg">
<path d="M21.15 63.75L18.4875 66.4125C17.7891 67.1151 17.397 68.0655 17.397 69.0562C17.397 70.0469 17.7891 70.9974 18.4875 71.7C19.1901 72.3984 20.1406 72.7905 21.1312 72.7905C22.1219 72.7905 23.0724 72.3984 23.775 71.7L26.4375 69.0375C27.0518 68.3201 27.3729 67.3973 27.3364 66.4535C27.3 65.5098 26.9087 64.6145 26.2409 63.9466C25.573 63.2788 24.6777 62.8875 23.7339 62.8511C22.7902 62.8146 21.8674 63.1356 21.15 63.75ZM18.75 45C18.75 44.0054 18.3549 43.0516 17.6516 42.3483C16.9484 41.6451 15.9946 41.25 15 41.25H11.25C10.2554 41.25 9.30161 41.6451 8.59835 42.3483C7.89509 43.0516 7.5 44.0054 7.5 45C7.5 45.9946 7.89509 46.9484 8.59835 47.6516C9.30161 48.3549 10.2554 48.75 11.25 48.75H15C15.9946 48.75 16.9484 48.3549 17.6516 47.6516C18.3549 46.9484 18.75 45.9946 18.75 45ZM45 18.75C45.9946 18.75 46.9484 18.3549 47.6516 17.6516C48.3549 16.9484 48.75 15.9946 48.75 15V11.25C48.75 10.2554 48.3549 9.30161 47.6516 8.59835C46.9484 7.89509 45.9946 7.5 45 7.5C44.0054 7.5 43.0516 7.89509 42.3483 8.59835C41.6451 9.30161 41.25 10.2554 41.25 11.25V15C41.25 15.9946 41.6451 16.9484 42.3483 17.6516C43.0516 18.3549 44.0054 18.75 45 18.75ZM21.15 26.4375C21.8485 27.1303 22.7912 27.5209 23.775 27.525C24.2685 27.5278 24.7578 27.4333 25.2146 27.2466C25.6715 27.06 26.0871 26.7851 26.4375 26.4375C27.1359 25.7349 27.528 24.7844 27.528 23.7937C27.528 22.8031 27.1359 21.8526 26.4375 21.15L23.775 18.4875C23.0576 17.8731 22.1348 17.5521 21.191 17.5886C20.2473 17.625 19.352 18.0163 18.6841 18.6841C18.0163 19.352 17.625 20.2473 17.5886 21.191C17.5521 22.1348 17.8731 23.0576 18.4875 23.775L21.15 26.4375ZM66.15 27.525C67.1338 27.5209 68.0765 27.1303 68.775 26.4375L71.4375 23.775C71.83 23.4388 72.1489 23.0251 72.374 22.5599C72.599 22.0946 72.7255 21.5879 72.7455 21.0714C72.7654 20.555 72.6784 20.04 72.4899 19.5588C72.3013 19.0776 72.0154 18.6405 71.6499 18.2751C71.2845 17.9096 70.8474 17.6236 70.3662 17.4351C69.885 17.2466 69.37 17.1596 68.8535 17.1795C68.3371 17.1995 67.8303 17.3259 67.3651 17.551C66.8999 17.7761 66.4862 18.0949 66.15 18.4875L63.75 21.15C63.0515 21.8526 62.6595 22.8031 62.6595 23.7937C62.6595 24.7844 63.0515 25.7349 63.75 26.4375C64.4111 27.0951 65.2935 27.4828 66.225 27.525H66.15ZM78.75 41.25H75C74.0054 41.25 73.0516 41.6451 72.3483 42.3483C71.6451 43.0516 71.25 44.0054 71.25 45C71.25 45.9946 71.6451 46.9484 72.3483 47.6516C73.0516 48.3549 74.0054 48.75 75 48.75H78.75C79.7445 48.75 80.6984 48.3549 81.4016 47.6516C82.1049 46.9484 82.5 45.9946 82.5 45C82.5 44.0054 82.1049 43.0516 81.4016 42.3483C80.6984 41.6451 79.7445 41.25 78.75 41.25ZM45 71.25C44.0054 71.25 43.0516 71.6451 42.3483 72.3483C41.6451 73.0516 41.25 74.0054 41.25 75V78.75C41.25 79.7445 41.6451 80.6984 42.3483 81.4016C43.0516 82.1049 44.0054 82.5 45 82.5C45.9946 82.5 46.9484 82.1049 47.6516 81.4016C48.3549 80.6984 48.75 79.7445 48.75 78.75V75C48.75 74.0054 48.3549 73.0516 47.6516 72.3483C46.9484 71.6451 45.9946 71.25 45 71.25ZM68.85 63.75C68.1375 63.3537 67.3154 63.2004 66.508 63.3133C65.7006 63.4261 64.952 63.799 64.3755 64.3755C63.799 64.952 63.4261 65.7006 63.3133 66.508C63.2004 67.3154 63.3537 68.1375 63.75 68.85L66.4125 71.5125C67.1151 72.2109 68.0655 72.603 69.0562 72.603C70.0469 72.603 70.9974 72.2109 71.7 71.5125C72.3984 70.8099 72.7905 69.8594 72.7905 68.8687C72.7905 67.878 72.3984 66.9276 71.7 66.225L68.85 63.75ZM45 24.375C40.9208 24.375 36.9331 25.5846 33.5414 27.8509C30.1496 30.1172 27.506 33.3384 25.945 37.1071C24.3839 40.8759 23.9755 45.0229 24.7713 49.0237C25.5671 53.0246 27.5315 56.6996 30.4159 59.5841C33.3004 62.4685 36.9754 64.4329 40.9763 65.2287C44.9771 66.0245 49.1241 65.6161 52.8928 64.055C56.6616 62.4939 59.8827 59.8504 62.149 56.4586C64.4154 53.0669 65.625 49.0792 65.625 45C65.6151 39.5329 63.4389 34.2927 59.5731 30.4269C55.7073 26.5611 50.467 24.3849 45 24.375ZM45 58.125C42.4041 58.125 39.8665 57.3552 37.7081 55.913C35.5497 54.4708 33.8675 52.421 32.8741 50.0227C31.8807 47.6244 31.6208 44.9854 32.1272 42.4394C32.6336 39.8934 33.8837 37.5548 35.7192 35.7192C37.5548 33.8837 39.8934 32.6336 42.4394 32.1272C44.9854 31.6208 47.6244 31.8807 50.0227 32.8741C52.421 33.8675 54.4708 35.5497 55.913 37.7081C57.3552 39.8665 58.125 42.4041 58.125 45C58.125 48.481 56.7422 51.8194 54.2808 54.2808C51.8194 56.7422 48.481 58.125 45 58.125Z" fill="#EEA049"/>
</svg>
