<svg width="81" height="81" viewBox="0 0 81 81" fill="none" xmlns="http://www.w3.org/2000/svg">
<circle cx="40.7004" cy="40.8177" r="22.6967" fill="url(#paint0_linear_106_1604)"/>
<ellipse cx="8.01734" cy="40.8178" rx="2.7236" ry="7.26294" transform="rotate(-90 8.01734 40.8178)" fill="url(#paint1_linear_106_1604)"/>
<ellipse cx="73.3838" cy="40.8178" rx="2.7236" ry="7.26294" transform="rotate(-90 73.3838 40.8178)" fill="url(#paint2_linear_106_1604)"/>
<ellipse rx="2.7236" ry="7.26294" transform="matrix(-0.716923 0.697152 0.697152 0.716923 17.9152 17.3864)" fill="url(#paint3_linear_106_1604)"/>
<ellipse rx="2.7236" ry="7.26294" transform="matrix(-0.716923 0.697152 0.697152 0.716923 63.4855 64.2492)" fill="url(#paint4_linear_106_1604)"/>
<ellipse rx="2.7236" ry="7.26294" transform="matrix(-0.718812 -0.695204 -0.695204 0.718812 63.4217 17.3247)" fill="url(#paint5_linear_106_1604)"/>
<ellipse rx="2.7236" ry="7.26294" transform="matrix(-0.718812 -0.695204 -0.695204 0.718812 17.9786 64.3109)" fill="url(#paint6_linear_106_1604)"/>
<ellipse rx="2.7236" ry="7.26294" transform="matrix(-0.999959 0.00902553 0.00902553 0.999959 40.4053 8.13586)" fill="url(#paint7_linear_106_1604)"/>
<ellipse rx="2.7236" ry="7.26294" transform="matrix(-0.999959 0.00902553 0.00902553 0.999959 40.9954 73.4997)" fill="url(#paint8_linear_106_1604)"/>
<defs>
<linearGradient id="paint0_linear_106_1604" x1="40.7004" y1="18.121" x2="40.7004" y2="63.5144" gradientUnits="userSpaceOnUse">
<stop stop-color="#FFF388"/>
<stop offset="1" stop-color="#FFC700" stop-opacity="0.53"/>
</linearGradient>
<linearGradient id="paint1_linear_106_1604" x1="8.01734" y1="33.5548" x2="8.01734" y2="48.0807" gradientUnits="userSpaceOnUse">
<stop stop-color="#FFF388"/>
<stop offset="1" stop-color="#FFC700" stop-opacity="0.53"/>
</linearGradient>
<linearGradient id="paint2_linear_106_1604" x1="73.3838" y1="33.5548" x2="73.3838" y2="48.0807" gradientUnits="userSpaceOnUse">
<stop stop-color="#FFF388"/>
<stop offset="1" stop-color="#FFC700" stop-opacity="0.53"/>
</linearGradient>
<linearGradient id="paint3_linear_106_1604" x1="2.7236" y1="0" x2="2.7236" y2="14.5259" gradientUnits="userSpaceOnUse">
<stop stop-color="#FFF388"/>
<stop offset="1" stop-color="#FFC700" stop-opacity="0.53"/>
</linearGradient>
<linearGradient id="paint4_linear_106_1604" x1="2.7236" y1="0" x2="2.7236" y2="14.5259" gradientUnits="userSpaceOnUse">
<stop stop-color="#FFF388"/>
<stop offset="1" stop-color="#FFC700" stop-opacity="0.53"/>
</linearGradient>
<linearGradient id="paint5_linear_106_1604" x1="2.7236" y1="0" x2="2.7236" y2="14.5259" gradientUnits="userSpaceOnUse">
<stop stop-color="#FFF388"/>
<stop offset="1" stop-color="#FFC700" stop-opacity="0.53"/>
</linearGradient>
<linearGradient id="paint6_linear_106_1604" x1="2.7236" y1="0" x2="2.7236" y2="14.5259" gradientUnits="userSpaceOnUse">
<stop stop-color="#FFF388"/>
<stop offset="1" stop-color="#FFC700" stop-opacity="0.53"/>
</linearGradient>
<linearGradient id="paint7_linear_106_1604" x1="2.7236" y1="0" x2="2.7236" y2="14.5259" gradientUnits="userSpaceOnUse">
<stop stop-color="#FFF388"/>
<stop offset="1" stop-color="#FFC700" stop-opacity="0.53"/>
</linearGradient>
<linearGradient id="paint8_linear_106_1604" x1="2.7236" y1="0" x2="2.7236" y2="14.5259" gradientUnits="userSpaceOnUse">
<stop stop-color="#FFF388"/>
<stop offset="1" stop-color="#FFC700" stop-opacity="0.53"/>
</linearGradient>
</defs>
</svg>
