<svg width="116" height="81" viewBox="0 0 116 81" fill="none" xmlns="http://www.w3.org/2000/svg">
<circle cx="71.2089" cy="40.7175" r="22.6967" fill="url(#paint0_linear_106_1619)"/>
<ellipse cx="38.5256" cy="40.7176" rx="2.7236" ry="7.26294" transform="rotate(-90 38.5256 40.7176)" fill="url(#paint1_linear_106_1619)"/>
<ellipse cx="103.892" cy="40.7176" rx="2.7236" ry="7.26294" transform="rotate(-90 103.892 40.7176)" fill="url(#paint2_linear_106_1619)"/>
<ellipse rx="2.7236" ry="7.26294" transform="matrix(-0.716923 0.697152 0.697152 0.716923 48.4237 17.2862)" fill="url(#paint3_linear_106_1619)"/>
<ellipse rx="2.7236" ry="7.26294" transform="matrix(-0.716923 0.697152 0.697152 0.716923 93.9941 64.149)" fill="url(#paint4_linear_106_1619)"/>
<ellipse rx="2.7236" ry="7.26294" transform="matrix(-0.718812 -0.695204 -0.695204 0.718812 93.9303 17.2244)" fill="url(#paint5_linear_106_1619)"/>
<ellipse rx="2.7236" ry="7.26294" transform="matrix(-0.718812 -0.695204 -0.695204 0.718812 48.4872 64.2107)" fill="url(#paint6_linear_106_1619)"/>
<ellipse rx="2.7236" ry="7.26294" transform="matrix(-0.999959 0.00902553 0.00902553 0.999959 70.9138 8.03564)" fill="url(#paint7_linear_106_1619)"/>
<ellipse rx="2.7236" ry="7.26294" transform="matrix(-0.999959 0.00902553 0.00902553 0.999959 71.5037 73.3995)" fill="url(#paint8_linear_106_1619)"/>
<g filter="url(#filter0_d_106_1619)">
<path d="M5 25.7749C14.2858 31.3133 55.8752 36.8639 44.2067 25.7749C40.5643 22.3134 25.1192 15.3905 28.7304 22.3135C32.3415 29.2364 50.3973 41.0055 77.2229 37.544" stroke="url(#paint9_linear_106_1619)" stroke-width="2" stroke-linecap="round" shape-rendering="crispEdges"/>
</g>
<g filter="url(#filter1_d_106_1619)">
<path d="M82.6943 47.8027C86.3524 50.7038 91.5781 56.1031 99.1086 53.9675C105.674 52.1055 91.7144 45.8666 93.137 49.493C94.5595 53.1193 100.578 55.7807 111.146 53.9675" stroke="url(#paint10_linear_106_1619)" stroke-width="2" stroke-linecap="round" shape-rendering="crispEdges"/>
</g>
<defs>
<filter id="filter0_d_106_1619" x="-0.000244141" y="16.3513" width="82.2234" height="28.8162" filterUnits="userSpaceOnUse" color-interpolation-filters="sRGB">
<feFlood flood-opacity="0" result="BackgroundImageFix"/>
<feColorMatrix in="SourceAlpha" type="matrix" values="0 0 0 0 0 0 0 0 0 0 0 0 0 0 0 0 0 0 127 0" result="hardAlpha"/>
<feOffset dy="2"/>
<feGaussianBlur stdDeviation="2"/>
<feComposite in2="hardAlpha" operator="out"/>
<feColorMatrix type="matrix" values="0 0 0 0 0 0 0 0 0 0 0 0 0 0 0 0 0 0 0.5 0"/>
<feBlend mode="normal" in2="BackgroundImageFix" result="effect1_dropShadow_106_1619"/>
<feBlend mode="normal" in="SourceGraphic" in2="effect1_dropShadow_106_1619" result="shape"/>
</filter>
<filter id="filter1_d_106_1619" x="76.6943" y="44.8027" width="38.4517" height="16.7492" filterUnits="userSpaceOnUse" color-interpolation-filters="sRGB">
<feFlood flood-opacity="0" result="BackgroundImageFix"/>
<feColorMatrix in="SourceAlpha" type="matrix" values="0 0 0 0 0 0 0 0 0 0 0 0 0 0 0 0 0 0 127 0" result="hardAlpha"/>
<feOffset dx="-1" dy="2"/>
<feGaussianBlur stdDeviation="2"/>
<feComposite in2="hardAlpha" operator="out"/>
<feColorMatrix type="matrix" values="0 0 0 0 0 0 0 0 0 0 0 0 0 0 0 0 0 0 0.25 0"/>
<feBlend mode="normal" in2="BackgroundImageFix" result="effect1_dropShadow_106_1619"/>
<feBlend mode="normal" in="SourceGraphic" in2="effect1_dropShadow_106_1619" result="shape"/>
</filter>
<linearGradient id="paint0_linear_106_1619" x1="71.2089" y1="18.0208" x2="71.2089" y2="63.4142" gradientUnits="userSpaceOnUse">
<stop stop-color="#FFF388"/>
<stop offset="1" stop-color="#FFC700" stop-opacity="0.53"/>
</linearGradient>
<linearGradient id="paint1_linear_106_1619" x1="38.5256" y1="33.4546" x2="38.5256" y2="47.9805" gradientUnits="userSpaceOnUse">
<stop stop-color="#FFF388"/>
<stop offset="1" stop-color="#FFC700" stop-opacity="0.53"/>
</linearGradient>
<linearGradient id="paint2_linear_106_1619" x1="103.892" y1="33.4546" x2="103.892" y2="47.9805" gradientUnits="userSpaceOnUse">
<stop stop-color="#FFF388"/>
<stop offset="1" stop-color="#FFC700" stop-opacity="0.53"/>
</linearGradient>
<linearGradient id="paint3_linear_106_1619" x1="2.7236" y1="0" x2="2.7236" y2="14.5259" gradientUnits="userSpaceOnUse">
<stop stop-color="#FFF388"/>
<stop offset="1" stop-color="#FFC700" stop-opacity="0.53"/>
</linearGradient>
<linearGradient id="paint4_linear_106_1619" x1="2.7236" y1="0" x2="2.7236" y2="14.5259" gradientUnits="userSpaceOnUse">
<stop stop-color="#FFF388"/>
<stop offset="1" stop-color="#FFC700" stop-opacity="0.53"/>
</linearGradient>
<linearGradient id="paint5_linear_106_1619" x1="2.7236" y1="0" x2="2.7236" y2="14.5259" gradientUnits="userSpaceOnUse">
<stop stop-color="#FFF388"/>
<stop offset="1" stop-color="#FFC700" stop-opacity="0.53"/>
</linearGradient>
<linearGradient id="paint6_linear_106_1619" x1="2.7236" y1="0" x2="2.7236" y2="14.5259" gradientUnits="userSpaceOnUse">
<stop stop-color="#FFF388"/>
<stop offset="1" stop-color="#FFC700" stop-opacity="0.53"/>
</linearGradient>
<linearGradient id="paint7_linear_106_1619" x1="2.7236" y1="0" x2="2.7236" y2="14.5259" gradientUnits="userSpaceOnUse">
<stop stop-color="#FFF388"/>
<stop offset="1" stop-color="#FFC700" stop-opacity="0.53"/>
</linearGradient>
<linearGradient id="paint8_linear_106_1619" x1="2.7236" y1="0" x2="2.7236" y2="14.5259" gradientUnits="userSpaceOnUse">
<stop stop-color="#FFF388"/>
<stop offset="1" stop-color="#FFC700" stop-opacity="0.53"/>
</linearGradient>
<linearGradient id="paint9_linear_106_1619" x1="41.1115" y1="15.1874" x2="41.1115" y2="38.1674" gradientUnits="userSpaceOnUse">
<stop stop-color="white"/>
<stop offset="1" stop-color="white" stop-opacity="0.31"/>
</linearGradient>
<linearGradient id="paint10_linear_106_1619" x1="96.9201" y1="42.2569" x2="96.9201" y2="54.2941" gradientUnits="userSpaceOnUse">
<stop stop-color="white"/>
<stop offset="1" stop-color="white" stop-opacity="0.18"/>
</linearGradient>
</defs>
</svg>
